<svg width="16" height="16" viewBox="0 0 16 16" fill="none" xmlns="http://www.w3.org/2000/svg">
<path d="M14.0602 4.65333C13.4935 4.02666 12.5469 3.71333 11.1735 3.71333H11.0135V3.68666C11.0135 2.56666 11.0135 1.17999 8.50685 1.17999H7.49352C4.98685 1.17999 4.98685 2.57333 4.98685 3.68666V3.71999H4.82685C3.44685 3.71999 2.50685 4.03333 1.94019 4.65999C1.28019 5.39333 1.30019 6.37999 1.36685 7.05333L1.37352 7.09999L1.41764 7.56327C1.43191 7.71305 1.51266 7.84849 1.63881 7.93047C1.79917 8.03467 2.02039 8.17566 2.16019 8.25333C2.25352 8.31333 2.35352 8.36666 2.45352 8.41999C3.59352 9.04666 4.84685 9.46666 6.12019 9.67333C6.18019 10.3 6.45352 11.0333 7.91352 11.0333C9.37352 11.0333 9.66019 10.3067 9.70685 9.65999C11.0669 9.43999 12.3802 8.96666 13.5669 8.27333C13.6069 8.25333 13.6335 8.23333 13.6669 8.21333C13.9106 8.07555 14.1628 7.90829 14.3966 7.74168C14.5101 7.66081 14.5823 7.53458 14.5977 7.39607L14.6002 7.37333L14.6335 7.05999C14.6402 7.01999 14.6402 6.98666 14.6469 6.93999C14.7002 6.26666 14.6869 5.34666 14.0602 4.65333ZM8.72685 9.21999C8.72685 9.92666 8.72685 10.0333 7.90685 10.0333C7.08685 10.0333 7.08685 9.90666 7.08685 9.22666V8.38666H8.72685V9.21999ZM5.94019 3.71333V3.68666C5.94019 2.55333 5.94019 2.13333 7.49352 2.13333H8.50685C10.0602 2.13333 10.0602 2.55999 10.0602 3.68666V3.71999H5.94019V3.71333Z" fill="#7F92A3"/>
<path d="M13.6456 9.28353C14.0003 9.1176 14.4077 9.3985 14.3723 9.78848L14.1601 12.1267C14.0201 13.46 13.4734 14.82 10.5401 14.82H5.46006C2.52672 14.82 1.98006 13.46 1.84006 12.1333L1.63935 9.92549C1.6043 9.54003 2.00224 9.25949 2.35586 9.41682C3.11559 9.75485 4.25609 10.2378 5.02976 10.4539C5.19335 10.4996 5.32589 10.6181 5.40399 10.7689C5.82484 11.5817 6.68651 12.0133 7.91339 12.0133C9.12824 12.0133 9.99996 11.565 10.4226 10.7491C10.5008 10.5982 10.6338 10.4797 10.7975 10.4336C11.6223 10.2012 12.8451 9.658 13.6456 9.28353Z" fill="#7F92A3"/>
</svg>
