<svg width="46" height="48" viewBox="0 0 56 48" fill="none" xmlns="http://www.w3.org/2000/svg">
<path d="M38.7687 25.7834V16.2074C38.7687 16.1941 38.7596 16.1833 38.7463 16.1833C38.2337 16.1785 28.9463 16.1706 24.9188 21.8628C24.2575 22.7974 23.9208 23.9232 23.9208 25.0671V28.5113C23.9208 31.2145 21.7006 33.3985 19.0005 33.173C16.6752 32.9788 14.8473 31.033 14.8473 28.6633V7.1566C14.8473 3.22092 11.6195 0.000976562 7.67419 0.000976562H7.1731C3.2278 0.000976562 0 3.22092 0 7.1566V28.6633C0 30.4819 0.252663 32.2426 0.72293 33.9104C2.15005 38.9707 5.58942 43.1922 10.1235 45.6554C12.8755 47.1502 16.0296 48.0004 19.3837 48.0004C22.7379 48.0004 25.8919 47.1502 28.644 45.6554C33.2717 43.1403 36.7577 38.7982 38.1298 33.6005C38.545 32.0261 38.7675 30.3697 38.7675 28.6633V25.7834H38.7687Z" fill="url(#paint0_linear_647_6184)"/>
<path d="M38.4556 5.0711C37.5555 2.14421 34.8149 0 31.5956 0H31.0945C27.1492 0 23.9214 3.21994 23.9214 7.15562V17.4854C23.9214 17.5065 23.945 17.5185 23.9607 17.504C25.823 15.7928 30.7143 12.1345 38.7457 11.8173C38.7584 11.8173 38.7693 11.8064 38.7693 11.7932V11.7757C39.2087 11.7588 39.6548 11.7486 40.11 11.7486C53.8511 11.7486 49.7257 19.5072 47.8186 22.1127C46.1582 24.3805 41.4506 27.7964 38.7699 28.7992C38.7699 28.7992 53.8517 25.1216 55.8627 13.7541C57.5618 4.15034 43.012 4.67615 38.4568 5.0705L38.4556 5.0711Z" fill="url(#paint1_linear_647_6184)"/>
<defs>
<linearGradient id="paint0_linear_647_6184" x1="0.000604457" y1="24.0004" x2="38.7687" y2="24.0004" gradientUnits="userSpaceOnUse">
<stop stop-color="#0A3F78"/>
<stop offset="1" stop-color="#0A3F78"/>
</linearGradient>
<linearGradient id="paint1_linear_647_6184" x1="23.9214" y1="14.4005" x2="55.9987" y2="14.4005" gradientUnits="userSpaceOnUse">
<stop stop-color="#0A3F78"/>
<stop offset="1" stop-color="#0A3F78"/>
</linearGradient>
</defs>
</svg>
