<svg width="45" height="36" viewBox="0 0 67 56" fill="none" xmlns="http://www.w3.org/2000/svg">
<path d="M46.384 30.081V18.909C46.384 18.8935 46.3731 18.8808 46.3572 18.8808C45.7439 18.8752 34.6321 18.866 29.8135 25.5069C29.0223 26.5973 28.6195 27.9107 28.6195 29.2452V33.2635C28.6195 36.4172 25.9632 38.9652 22.7328 38.7021C19.9506 38.4756 17.7637 36.2055 17.7637 33.4408V8.34969C17.7637 3.75806 13.9019 0.00146484 9.18162 0.00146484H8.5821C3.86184 0.00146484 0 3.75806 0 8.34969V33.4408C0 35.5625 0.302293 37.6167 0.864935 39.5625C2.57239 45.4661 6.68734 50.3912 12.112 53.2649C15.4047 55.0089 19.1783 56.0008 23.1913 56.0008C27.2042 56.0008 30.9778 55.0089 34.2705 53.2649C39.8073 50.3307 43.9779 45.2649 45.6196 39.2009C46.1164 37.3641 46.3825 35.4316 46.3825 33.4408V30.081H46.384Z" fill="url(#paint0_linear_98_1658)"/>
<path d="M46.0092 5.91628C44.9324 2.50158 41.6534 0 37.8017 0H37.2022C32.482 0 28.6201 3.75659 28.6201 8.34822V20.3996C28.6201 20.4242 28.6483 20.4383 28.6671 20.4214C30.8953 18.4249 36.7473 14.1569 46.3564 13.7868C46.3715 13.7868 46.3846 13.7742 46.3846 13.7587V13.7383C46.9103 13.7186 47.444 13.7066 47.9886 13.7066C64.4289 13.7066 59.4931 22.7584 57.2114 25.7981C55.2248 28.4439 49.5926 32.4291 46.3853 33.599C46.3853 33.599 64.4296 29.3085 66.8357 16.0464C68.8685 4.84207 51.4606 5.45551 46.0107 5.91558L46.0092 5.91628Z" fill="url(#paint1_linear_98_1658)"/>
<defs>
<linearGradient id="paint0_linear_98_1658" x1="0.00072319" y1="28.0008" x2="46.384" y2="28.0008" gradientUnits="userSpaceOnUse">
<stop stop-color="#fff"/>
<stop offset="1" stop-color="#fff"/>
</linearGradient>
<linearGradient id="paint1_linear_98_1658" x1="28.6201" y1="16.8006" x2="66.9984" y2="16.8006" gradientUnits="userSpaceOnUse">
<stop stop-color="#fff"/>
<stop offset="1" stop-color="#fff"/>
</linearGradient>
</defs>
</svg>
