<svg width="72" height="72" viewBox="0 0 72 72" fill="none" xmlns="http://www.w3.org/2000/svg">
<path d="M44.1868 48.8265C43.0135 49.1732 41.6268 49.3332 40.0001 49.3332H32.0001C30.3735 49.3332 28.9868 49.1732 27.8135 48.8265C28.1068 45.3598 31.6668 42.6265 36.0001 42.6265C40.3335 42.6265 43.8935 45.3598 44.1868 48.8265Z" stroke="#f3742d" stroke-width="3" stroke-linecap="round" stroke-linejoin="round"/>
<path d="M40.0003 22.6665H32.0003C25.3337 22.6665 22.667 25.3332 22.667 31.9998V39.9998C22.667 45.0398 24.187 47.7998 27.8137 48.8265C28.107 45.3598 31.667 42.6265 36.0003 42.6265C40.3337 42.6265 43.8937 45.3598 44.187 48.8265C47.8137 47.7998 49.3337 45.0398 49.3337 39.9998V31.9998C49.3337 25.3332 46.667 22.6665 40.0003 22.6665ZM36.0003 38.8931C33.3603 38.8931 31.227 36.7465 31.227 34.1065C31.227 31.4665 33.3603 29.3332 36.0003 29.3332C38.6403 29.3332 40.7737 31.4665 40.7737 34.1065C40.7737 36.7465 38.6403 38.8931 36.0003 38.8931Z" stroke="#f3742d" stroke-width="3" stroke-linecap="round" stroke-linejoin="round"/>
<path d="M40.7732 34.1069C40.7732 36.7469 38.6399 38.8935 35.9999 38.8935C33.3599 38.8935 31.2266 36.7469 31.2266 34.1069C31.2266 31.4669 33.3599 29.3335 35.9999 29.3335C38.6399 29.3335 40.7732 31.4669 40.7732 34.1069Z" stroke="#f3742d" stroke-width="3" stroke-linecap="round" stroke-linejoin="round"/>
<rect x="0.5" y="0.5" width="71" height="71" rx="35.5" stroke="#ECEEF0"/>
</svg>
