<svg xmlns="http://www.w3.org/2000/svg" width="268" height="48" viewBox="0 0 268 48">
  <g id="Group_40325" data-name="Group 40325" transform="translate(-261 -23)">
    <rect id="Rectangle_22224" data-name="Rectangle 22224" width="268" height="48" transform="translate(261 23)" fill="none"/>
    <g id="Group_40285" data-name="Group 40285" transform="translate(-1 -23.021)">
      <path id="Path_9586" data-name="Path 9586" d="M75.925,22.433c0,.357-.126.525-.5.525H73.678c-.378,0-.5-.168-.5-.525V14.454c-.02.064-.4,1.344-.608,1.912l-1.6,3.905a.713.713,0,0,1-.693.525H68.786a.7.7,0,0,1-.672-.525L66.329,16.05a9.11,9.11,0,0,1-.482-1.553v7.936c0,.357-.126.525-.5.525H63.684c-.378,0-.5-.168-.5-.525V9.206c0-.357.126-.525.5-.525h1.659a.432.432,0,0,1,.462.294L69.017,16.3c.252.568.525,1.471.525,1.471s.273-.819.546-1.449L73.2,8.933c.083-.189.23-.252.482-.252h1.743c.378,0,.5.168.5.525Z" transform="translate(264 49.021)" fill="#272b3d"/>
      <path id="Path_9587" data-name="Path 9587" d="M78.762,22.958c-.378,0-.5-.168-.5-.546V9.227c0-.378.126-.546.5-.546h7.181c.356,0,.524.126.524.5v1.322c0,.379-.168.525-.524.525H81.092v3.4h4.493c.378,0,.546.126.546.5V16.2c0,.357-.168.5-.546.5H81.092v3.905h5.061c.378,0,.524.126.524.5v1.323c0,.379-.146.525-.524.525Z" transform="translate(264 49.021)" fill="#272b3d"/>
      <path id="Path_9588" data-name="Path 9588" d="M96.526,8.681c.356,0,.524.126.524.5v1.322c0,.379-.168.526-.524.526H93.545V22.412c0,.378-.126.546-.5.546H91.214c-.378,0-.525-.168-.525-.546V11.033H87.708c-.378,0-.526-.147-.526-.526V9.185c0-.378.148-.5.526-.5Z" transform="translate(264 49.021)" fill="#272b3d"/>
      <path id="Path_9589" data-name="Path 9589" d="M101.021,17.52v4.892c0,.378-.126.546-.5.546H98.69c-.377,0-.5-.168-.5-.546V9.226c0-.378.126-.546.5-.546h4.41c3.8,0,5.08,1.659,5.08,3.422V14.1a3.109,3.109,0,0,1-2.309,3.024l2.268,5.291c.146.336-.105.546-.483.546h-1.848c-.294,0-.379-.21-.524-.546l-2.058-4.892h-2.2Zm0-6.488v4.137H103.1c1.406,0,2.268-.526,2.268-1.575v-.988c0-1.049-.862-1.574-2.268-1.574Z" transform="translate(264 49.021)" fill="#272b3d"/>
      <path id="Path_9590" data-name="Path 9590" d="M110.7,22.958c-.378,0-.5-.168-.5-.546V9.227c0-.378.126-.546.5-.546h7.181c.357,0,.525.126.525.5v1.322c0,.379-.168.525-.525.525h-4.85v3.4h4.493c.378,0,.546.126.546.5V16.2c0,.357-.168.5-.546.5h-4.493v3.905h5.06c.378,0,.525.126.525.5v1.323c0,.379-.147.525-.525.525Z" transform="translate(264 49.021)" fill="#272b3d"/>
      <path id="Path_9591" data-name="Path 9591" d="M123.784,22.958a.6.6,0,0,1-.65-.525L119.207,9.206c-.105-.336.021-.525.4-.525H121.6c.358,0,.5.189.61.525l2.036,7.139a23.235,23.235,0,0,1,.5,3.044,27.838,27.838,0,0,1,.567-3.024l2.036-7.159c.106-.336.252-.525.63-.525h1.827c.357,0,.483.189.378.525l-3.905,13.227a.624.624,0,0,1-.672.525Z" transform="translate(264 49.021)" fill="#272b3d"/>
      <path id="Path_9592" data-name="Path 9592" d="M131.891,22.958c-.378,0-.5-.168-.5-.546V9.227c0-.378.126-.546.5-.546h7.181c.357,0,.525.126.525.5v1.322c0,.379-.168.525-.525.525h-4.85v3.4h4.493c.378,0,.546.126.546.5V16.2c0,.357-.168.5-.546.5h-4.493v3.905h5.06c.378,0,.525.126.525.5v1.323c0,.379-.147.525-.525.525Z" transform="translate(264 49.021)" fill="#272b3d"/>
      <path id="Path_9593" data-name="Path 9593" d="M144.386,20.606h4.682c.357,0,.525.126.525.5v1.322c0,.379-.168.526-.525.526h-7.076c-.315,0-.441-.19-.441-.546V9.226c0-.378.126-.546.5-.546h1.827c.378,0,.5.168.5.546Z" transform="translate(264 49.021)" fill="#272b3d"/>
      <path id="Path_9594" data-name="Path 9594" d="M153.814,22.412c0,.378-.126.546-.5.546h-1.827c-.379,0-.5-.168-.5-.546V9.226c0-.377.126-.545.5-.545h1.827c.377,0,.5.168.5.545Z" transform="translate(264 49.021)" fill="#272b3d"/>
      <path id="Path_9595" data-name="Path 9595" d="M171.556,14.476c.358,0,.526.126.526.5v1.238c0,.379-.168.525-.526.525h-1.238V19.7c0,1.764-1.2,3.422-5.459,3.422-4.241,0-5.4-1.595-5.4-3.338V17.919a2.34,2.34,0,0,1,1.763-2.393,2.031,2.031,0,0,1-1.574-2.184V11.851c0-1.742.966-3.338,4.682-3.338,3.737,0,4.724,1.658,4.724,3.422v.672c0,.357-.126.525-.483.525h-1.764c-.356,0-.5-.168-.5-.525v-.273c0-1.028-.566-1.553-1.952-1.553-1.365,0-1.932.525-1.932,1.553v.588c0,1.05.651,1.554,2.058,1.554Zm-3.989,4.829V16.743h-3.275c-1.386,0-2.058.483-2.058,1.534v1.028c0,1.028.861,1.554,2.667,1.554,1.784,0,2.666-.526,2.666-1.554" transform="translate(264 49.021)" fill="#272b3d"/>
      <path id="Path_9596" data-name="Path 9596" d="M179.98,17.9v4.515c0,.378-.126.546-.5.546h-1.827c-.378,0-.5-.168-.5-.546V9.226c0-.378.126-.546.5-.546h4.409c3.8,0,5.081,1.659,5.081,3.422v2.373c0,1.764-1.28,3.422-5.081,3.422Zm0-6.865v4.514h2.078c1.407,0,2.268-.525,2.268-1.553V12.606c0-1.049-.861-1.574-2.268-1.574Z" transform="translate(264 49.021)" fill="#272b3d"/>
      <path id="Path_9597" data-name="Path 9597" d="M193.082,8.681a.623.623,0,0,1,.672.525l3.906,13.227c.1.336-.021.525-.378.525h-1.89c-.356,0-.5-.189-.608-.525l-.736-2.561h-3.9l-.734,2.561c-.106.336-.252.525-.63.525h-1.7c-.378,0-.5-.189-.4-.525L190.6,9.206a.6.6,0,0,1,.651-.525Zm-.356,6.613a31.483,31.483,0,0,1-.609-3.82c-.042.272-.4,2.918-.651,3.8l-.714,2.352h2.666Z" transform="translate(264 49.021)" fill="#272b3d"/>
      <path id="Path_9598" data-name="Path 9598" d="M201.692,17.52v4.892c0,.378-.126.546-.5.546h-1.826c-.378,0-.5-.168-.5-.546V9.226c0-.378.126-.546.5-.546h4.409c3.8,0,5.081,1.659,5.081,3.422V14.1a3.109,3.109,0,0,1-2.309,3.024l2.267,5.291c.147.336-.1.546-.483.546h-1.848c-.294,0-.378-.21-.524-.546L203.9,17.52h-2.205Zm0-6.488v4.137h2.079c1.406,0,2.268-.526,2.268-1.575v-.988c0-1.049-.862-1.574-2.268-1.574Z" transform="translate(264 49.021)" fill="#272b3d"/>
      <path id="Path_9599" data-name="Path 9599" d="M218.87,8.681c.356,0,.524.126.524.5v1.322c0,.379-.168.526-.524.526h-2.981V22.412c0,.378-.126.546-.5.546h-1.827c-.378,0-.525-.168-.525-.546V11.033h-2.981c-.378,0-.526-.147-.526-.526V9.185c0-.378.148-.5.526-.5Z" transform="translate(264 49.021)" fill="#272b3d"/>
      <path id="Path_9600" data-name="Path 9600" d="M230.734,22.433c0,.357-.126.525-.5.525h-1.659c-.273,0-.378-.062-.483-.252l-4.052-6.949a10.121,10.121,0,0,1-.84-1.7v8.377c0,.357-.126.525-.5.525h-1.658c-.378,0-.5-.168-.5-.525V9.206c0-.357.126-.525.5-.525h1.658a.439.439,0,0,1,.441.21l4.22,7.243a14.339,14.339,0,0,1,.714,1.471v-8.4c0-.357.126-.525.5-.525h1.659c.378,0,.5.168.5.525Z" transform="translate(264 49.021)" fill="#272b3d"/>
      <path id="Path_9601" data-name="Path 9601" d="M233.571,22.958c-.378,0-.5-.168-.5-.546V9.227c0-.378.126-.546.5-.546h7.181c.356,0,.524.126.524.5v1.322c0,.379-.168.525-.524.525H235.9v3.4h4.493c.378,0,.546.126.546.5V16.2c0,.357-.168.5-.546.5H235.9v3.905h5.061c.378,0,.524.126.524.5v1.323c0,.379-.146.525-.524.525Z" transform="translate(264 49.021)" fill="#272b3d"/>
      <path id="Path_9602" data-name="Path 9602" d="M246.065,17.52v4.892c0,.378-.126.546-.5.546h-1.826c-.378,0-.5-.168-.5-.546V9.226c0-.378.126-.546.5-.546h4.409c3.8,0,5.081,1.659,5.081,3.422V14.1a3.109,3.109,0,0,1-2.309,3.024l2.267,5.291c.147.336-.1.546-.483.546h-1.848c-.294,0-.378-.21-.524-.546L248.27,17.52h-2.205Zm0-6.488v4.137h2.079c1.406,0,2.268-.526,2.268-1.575v-.988c0-1.049-.862-1.574-2.268-1.574Z" transform="translate(264 49.021)" fill="#272b3d"/>
      <path id="Path_9603" data-name="Path 9603" d="M261.9,12.314c0-1.029-.692-1.512-2.036-1.512-1.365,0-2.058.483-2.058,1.512v.314a1.163,1.163,0,0,0,.861,1.134l3.653,1.3a3.208,3.208,0,0,1,2.477,3.023V19.7c0,1.763-1.238,3.422-5,3.422-3.737,0-5.017-1.659-5.017-3.422V18.381c0-.378.146-.546.5-.546h1.763c.378,0,.5.168.5.546v.945c0,1.029.8,1.511,2.226,1.511,1.406,0,2.225-.482,2.225-1.511v-.672c0-.861-.839-1.2-1.785-1.553l-3.254-1.219a3,3,0,0,1-1.911-2.708V11.935c0-1.764,1.092-3.422,4.767-3.422s4.849,1.658,4.849,3.422V12.8c0,.358-.146.526-.524.526h-1.764c-.357,0-.483-.168-.483-.526Z" transform="translate(264 49.021)" fill="#272b3d"/>
      <path id="Path_9604" data-name="Path 9604" d="M64.991,40.165H68.56c.273,0,.4.1.4.385v1.008c0,.288-.128.4-.4.4H63.167c-.24,0-.336-.145-.336-.416V31.49c0-.288.1-.417.384-.417h1.392c.288,0,.384.129.384.417Z" transform="translate(264 49.021)" fill="#cb873e"/>
      <path id="Path_9605" data-name="Path 9605" d="M74,31.073a.475.475,0,0,1,.512.4L77.49,41.557c.08.256-.016.4-.289.4H75.76c-.27,0-.383-.145-.463-.4l-.56-1.952H71.759L71.2,41.557c-.081.256-.193.4-.482.4h-1.3c-.29,0-.385-.145-.305-.4l2.994-10.084a.459.459,0,0,1,.5-.4Zm-.271,5.042a24.252,24.252,0,0,1-.465-2.913c-.033.208-.3,2.226-.5,2.9l-.544,1.793h2.032Z" transform="translate(264 49.021)" fill="#cb873e"/>
      <path id="Path_9606" data-name="Path 9606" d="M85.874,36.916c.128.544.24,1.44.256,1.585a15.177,15.177,0,0,1,.288-1.569l1.377-5.458a.441.441,0,0,1,.464-.4h1.217c.288,0,.368.145.3.4L87.234,41.558a.459.459,0,0,1-.5.4h-1.36a.447.447,0,0,1-.448-.4l-1.41-5.571a13.643,13.643,0,0,1-.223-1.456c-.016.16-.145,1.136-.225,1.456l-1.408,5.571a.45.45,0,0,1-.5.4h-1.36a.448.448,0,0,1-.449-.4L76.814,31.474c-.064-.256.016-.4.3-.4h1.425a.442.442,0,0,1,.464.4l1.345,5.458c.144.592.255,1.344.255,1.344s.08-.528.288-1.344l1.377-5.458a.448.448,0,0,1,.481-.4h1.3a.447.447,0,0,1,.48.4Z" transform="translate(264 49.021)" fill="#cb873e"/>
      <path id="Path_9607" data-name="Path 9607" d="M99.536,31.073c.272,0,.4.1.4.385v1.008c0,.288-.128.4-.4.4H95.455v2.593h3.81c.288,0,.4.1.4.385v1.024c0,.288-.112.4-.4.4h-3.81v4.274c0,.288-.1.416-.385.416H93.678c-.288,0-.384-.128-.384-.416V31.49c0-.288.1-.417.384-.417Z" transform="translate(264 49.021)" fill="#cb873e"/>
      <path id="Path_9608" data-name="Path 9608" d="M103.279,41.542c0,.288-.1.416-.385.416H101.5c-.288,0-.384-.128-.384-.416V31.49c0-.288.1-.417.384-.417h1.392c.288,0,.385.129.385.417Z" transform="translate(264 49.021)" fill="#cb873e"/>
      <path id="Path_9609" data-name="Path 9609" d="M107.2,37.812v3.73c0,.288-.1.416-.384.416h-1.392c-.288,0-.384-.128-.384-.416V31.49c0-.288.1-.417.384-.417h3.361c2.9,0,3.874,1.265,3.874,2.609V35.2a2.37,2.37,0,0,1-1.761,2.305l1.729,4.034c.111.256-.08.416-.368.416h-1.41c-.223,0-.288-.16-.4-.416l-1.569-3.73H107.2Zm0-4.946v3.153h1.585c1.072,0,1.728-.4,1.728-1.2v-.753c0-.8-.656-1.2-1.728-1.2Z" transform="translate(264 49.021)" fill="#cb873e"/>
      <path id="Path_9610" data-name="Path 9610" d="M123.89,41.558c0,.272-.1.4-.384.4h-1.329c-.288,0-.384-.128-.384-.4V35.476c-.015.048-.3,1.024-.464,1.456l-1.216,2.978a.545.545,0,0,1-.529.4h-1.136a.529.529,0,0,1-.512-.4l-1.36-3.218a6.984,6.984,0,0,1-.369-1.184v6.05c0,.272-.1.4-.384.4h-1.265c-.288,0-.384-.128-.384-.4V31.474c0-.271.1-.4.384-.4h1.265a.328.328,0,0,1,.352.224l2.449,5.586c.192.433.4,1.121.4,1.121s.209-.625.417-1.1l2.368-5.635c.064-.144.177-.192.368-.192h1.329c.288,0,.384.129.384.4Z" transform="translate(264 49.021)" fill="#cb873e"/>
      <path id="Path_9611" data-name="Path 9611" d="M25,10.222C25,9.376,25.282,9,26.128,9h2.4V1.175C28.527.376,28.245,0,27.4,0H23.5c-.563,0-.893.141-1.08.564L15.462,17.107c-.611,1.41-1.222,3.243-1.222,3.243s-.611-2.021-1.175-3.29L5.875.659A.964.964,0,0,0,4.841,0H1.128C.282,0,0,.376,0,1.175V30.784c0,.8.282,1.174,1.128,1.174H4.841c.846,0,1.128-.376,1.128-1.174V13.019A20.651,20.651,0,0,0,7.05,16.5l3.994,9.447a1.553,1.553,0,0,0,1.5,1.175h3.337a1.594,1.594,0,0,0,1.551-1.175L21.008,17.2c.47-1.269,1.315-4.135,1.362-4.277v17.86c0,.8.282,1.174,1.128,1.174H25Z" transform="translate(263 47.021)" fill="#cb873e"/>
      <path id="Path_9612" data-name="Path 9612" d="M34.345,32.632v10.1c0,.845-.282,1.221-1.128,1.221H29.128c-.845,0-1.128-.376-1.128-1.221V13.222c0-.846.283-1.222,1.128-1.222H39C47.5,12,50.37,15.713,50.37,19.66v5.312c0,3.947-2.866,7.66-11.373,7.66Zm0-15.368v10.1H39c3.15,0,5.077-1.174,5.077-3.477v-3.1c0-2.349-1.927-3.524-5.077-3.524Z" transform="translate(264 49.021)" fill="#cb873e"/>
      <rect id="Rectangle_22169" data-name="Rectangle 22169" width="264.796" height="43.958" transform="translate(264 49.021)" fill="none"/>
    </g>
  </g>
</svg>
